{
  "accessors": [
    {
      "bufferView": 0,
      "componentType": 5125,
      "count": 181920,
      "type": "SCALAR"
    },
    {
      "bufferView": 1,
      "componentType": 5126,
      "count": 38265,
      "max": [
        1.8122360677445795,
        1.9681008318940236,
        0.03490154722443151
      ],
      "min": [
        -1.8122360677445795,
        -1.968100831894024,
        -0.03490154722443151
      ],
      "type": "VEC3"
    },
    {
      "bufferView": 2,
      "componentType": 5126,
      "count": 38265,
      "max": [
        0.9999999961006162,
        0.9999999950663309,
        1.0
      ],
      "min": [
        -0.9999999427361703,
        -0.9999999999999982,
        -1.0
      ],
      "type": "VEC3"
    },
    {
      "bufferView": 3,
      "componentType": 5126,
      "count": 38265,
      "max": [
        1.0,
        0.6479754759236032
      ],
      "min": [
        0.0,
        0.0
      ],
      "type": "VEC2"
    }
  ],
  "asset": {
    "generator": "Adobe Illustrator",
    "version": "2.0"
  },
  "bufferViews": [
    {
      "buffer": 0,
      "byteLength": 727680,
      "target": 34963
    },
    {
      "buffer": 0,
      "byteLength": 459180,
      "byteOffset": 727680,
      "target": 34962
    },
    {
      "buffer": 0,
      "byteLength": 459180,
      "byteOffset": 1186860,
      "target": 34962
    },
    {
      "buffer": 0,
      "byteLength": 306120,
      "byteOffset": 1646040,
      "target": 34962
    }
  ],
  "buffers": [
    {
      "byteLength": 1952160,
      "uri": "data:application/octet-stream;base64,"
    }
  ],
  "materials": [
    {
      "doubleSided": true,
      "pbrMetallicRoughness": {
        "baseColorFactor": [
          0.9999999403953552,
          0.0,
          0.9726561903953552,
          1.0
        ],
        "metallicFactor": 0.0,
        "roughnessFactor": 0.4000000059604645
      }
    }
  ],
  "meshes": [
    {
      "primitives": [
        {
          "attributes": {
            "NORMAL": 2,
            "POSITION": 1,
            "TEXCOORD_0": 3
          },
          "indices": 0,
          "material": 0,
          "mode": 4
        }
      ]
    }
  ],
  "nodes": [
    {
      "mesh": 0
    }
  ],
  "scenes": [
    {
      "nodes": [
        0
      ]
    }
  ]
}
