{
  "accessors": [
    {
      "bufferView": 0,
      "componentType": 5125,
      "count": 276006,
      "type": "SCALAR"
    },
    {
      "bufferView": 1,
      "componentType": 5126,
      "count": 60491,
      "max": [
        1.5811999913990205,
        1.1851206558138,
        0.02634050247553934
      ],
      "min": [
        -1.5811999913990202,
        -1.1851206558138003,
        -0.02634050247553934
      ],
      "type": "VEC3"
    },
    {
      "bufferView": 2,
      "componentType": 5126,
      "count": 60491,
      "max": [
        1.0,
        0.9999999657091186,
        1.0
      ],
      "min": [
        -0.9999999950339837,
        -1.0,
        -1.0
      ],
      "type": "VEC3"
    },
    {
      "bufferView": 3,
      "componentType": 5126,
      "count": 60491,
      "max": [
        1.0,
        0.9953189312490227
      ],
      "min": [
        0.0,
        0.0
      ],
      "type": "VEC2"
    }
  ],
  "asset": {
    "generator": "Adobe Illustrator",
    "version": "2.0"
  },
  "bufferViews": [
    {
      "buffer": 0,
      "byteLength": 1104024,
      "target": 34963
    },
    {
      "buffer": 0,
      "byteLength": 725892,
      "byteOffset": 1104024,
      "target": 34962
    },
    {
      "buffer": 0,
      "byteLength": 725892,
      "byteOffset": 1829916,
      "target": 34962
    },
    {
      "buffer": 0,
      "byteLength": 483928,
      "byteOffset": 2555808,
      "target": 34962
    }
  ],
  "buffers": [
    {
      "byteLength": 3039736,
      "uri": "data:application/octet-stream;base64,"
    }
  ],
  "materials": [
    {
      "doubleSided": true,
      "pbrMetallicRoughness": {
        "baseColorFactor": [
          0.875,
          0.875,
          0.0,
          1.0
        ],
        "metallicFactor": 0.0,
        "roughnessFactor": 0.4000000059604645
      }
    }
  ],
  "meshes": [
    {
      "primitives": [
        {
          "attributes": {
            "NORMAL": 2,
            "POSITION": 1,
            "TEXCOORD_0": 3
          },
          "indices": 0,
          "material": 0,
          "mode": 4
        }
      ]
    }
  ],
  "nodes": [
    {
      "mesh": 0
    }
  ],
  "scenes": [
    {
      "nodes": [
        0
      ]
    }
  ]
}
