{
  "accessors": [
    {
      "bufferView": 0,
      "componentType": 5125,
      "count": 209256,
      "type": "SCALAR"
    },
    {
      "bufferView": 1,
      "componentType": 5126,
      "count": 52951,
      "max": [
        2.384638831645648,
        1.8283994232357266,
        0.013849691888662209
      ],
      "min": [
        -2.384638831645648,
        -1.8283994232357266,
        -0.013849691888662209
      ],
      "type": "VEC3"
    },
    {
      "bufferView": 2,
      "componentType": 5126,
      "count": 52951,
      "max": [
        0.9999999995306942,
        0.9999999971571799,
        1.0
      ],
      "min": [
        -0.999999677781442,
        -1.0,
        -1.0
      ],
      "type": "VEC3"
    },
    {
      "bufferView": 3,
      "componentType": 5126,
      "count": 52951,
      "max": [
        1.0,
        0.9946640045823324
      ],
      "min": [
        0.0,
        0.0
      ],
      "type": "VEC2"
    }
  ],
  "asset": {
    "generator": "Adobe Illustrator",
    "version": "2.0"
  },
  "bufferViews": [
    {
      "buffer": 0,
      "byteLength": 837024,
      "target": 34963
    },
    {
      "buffer": 0,
      "byteLength": 635412,
      "byteOffset": 837024,
      "target": 34962
    },
    {
      "buffer": 0,
      "byteLength": 635412,
      "byteOffset": 1472436,
      "target": 34962
    },
    {
      "buffer": 0,
      "byteLength": 423608,
      "byteOffset": 2107848,
      "target": 34962
    }
  ],
  "buffers": [
    {
      "byteLength": 2531456,
      "uri": "data:application/octet-stream;base64,"
    }
  ],
  "materials": [
    {
      "doubleSided": true,
      "pbrMetallicRoughness": {
        "baseColorFactor": [
          0.015625,
          0.1171875074505806,
          0.9999999403953552,
          1.0
        ],
        "metallicFactor": 0.0,
        "roughnessFactor": 0.4000000059604645
      }
    }
  ],
  "meshes": [
    {
      "primitives": [
        {
          "attributes": {
            "NORMAL": 2,
            "POSITION": 1,
            "TEXCOORD_0": 3
          },
          "indices": 0,
          "material": 0,
          "mode": 4
        }
      ]
    }
  ],
  "nodes": [
    {
      "mesh": 0
    }
  ],
  "scenes": [
    {
      "nodes": [
        0
      ]
    }
  ]
}
